<svg width="86" height="20" viewBox="0 0 86 20" fill="none" xmlns="http://www.w3.org/2000/svg">
<path d="M0.65625 16.4336C0.65625 16.0352 0.730469 15.6328 0.878906 15.2266C1.02734 14.8203 1.25781 14.4375 1.57031 14.0781C2.71094 14.5781 3.70312 14.9609 4.54688 15.2266C5.39844 15.4922 6.27344 15.625 7.17188 15.625C7.33594 15.625 7.50391 15.6094 7.67578 15.5781C7.85547 15.5469 7.99609 15.5039 8.09766 15.4492C8.13672 15.3633 8.16797 15.2539 8.19141 15.1211C8.21484 14.9805 8.22656 14.8672 8.22656 14.7812C8.22656 14.3984 8.04297 14.0703 7.67578 13.7969C7.30859 13.5234 6.82422 13.25 6.22266 12.9766L5.8125 12.7773C4.64062 12.1758 3.69922 11.6367 2.98828 11.1602C2.28516 10.6758 1.6875 10.043 1.19531 9.26172C0.710938 8.47266 0.46875 7.50781 0.46875 6.36719C0.46875 4.69531 0.933594 3.35547 1.86328 2.34766C2.80078 1.33984 4.28906 0.835938 6.32812 0.835938C8.07031 0.835938 9.44922 0.941406 10.4648 1.15234C10.8867 1.40234 11.2539 1.66406 11.5664 1.9375C11.8867 2.20313 12.1914 2.52734 12.4805 2.91016C12.4805 3.45703 12.4258 4.05078 12.3164 4.69141C12.2148 5.32422 12.0703 5.90625 11.8828 6.4375C11.7031 6.96875 11.5078 7.35156 11.2969 7.58594C11.1172 7.67188 10.918 7.73828 10.6992 7.78516C10.4805 7.82422 10.2109 7.84375 9.89062 7.84375C9.55469 7.84375 9.28125 7.82031 9.07031 7.77344C8.85938 7.72656 8.66406 7.64844 8.48438 7.53906L8.12109 5.10156C7.66797 4.97656 7.1875 4.88672 6.67969 4.83203C6.17188 4.76953 5.82812 4.74219 5.64844 4.75C5.35938 4.88281 5.16016 5.07031 5.05078 5.3125C4.94922 5.54688 4.89844 5.82812 4.89844 6.15625C4.89844 6.50781 4.99219 6.8125 5.17969 7.07031C5.375 7.32031 5.60938 7.52734 5.88281 7.69141C6.15625 7.85547 6.50781 8.03906 6.9375 8.24219L7.45312 8.5C8.57031 9.08594 9.44922 9.59766 10.0898 10.0352C10.7305 10.4727 11.2656 11.0273 11.6953 11.6992C12.1328 12.3633 12.3516 13.168 12.3516 14.1133C12.3516 15.2148 12.0625 16.1641 11.4844 16.9609C10.9062 17.75 10.1641 18.3203 9.25781 18.6719C8.76562 18.8672 8.22266 19.0078 7.62891 19.0938C7.03516 19.1797 6.34766 19.2227 5.56641 19.2227C5.03516 19.2227 4.46484 19.1562 3.85547 19.0234C3.24609 18.8906 2.65234 18.6562 2.07422 18.3203C1.50391 17.9844 1.04688 17.5352 0.703125 16.9727C0.671875 16.8242 0.65625 16.6445 0.65625 16.4336ZM13.7227 15.2383C14.1992 15.3945 14.6328 15.5195 15.0234 15.6133C15.7812 12.5664 16.6445 8.96875 17.6133 4.82031L14.7891 4.51562C14.6094 4.02344 14.5195 3.46484 14.5195 2.83984C14.5195 2.36328 14.5742 1.89844 14.6836 1.44531C15.8164 1.22656 17.1211 1.07031 18.5977 0.976562C20.082 0.875 21.3555 0.824219 22.418 0.824219C23.1836 0.824219 23.7578 0.828125 24.1406 0.835938L24.8789 1.25781C26.1914 4.85938 27.5234 9.73047 28.875 15.8711C28.8906 15.9336 28.918 16.0586 28.957 16.2461C29.0039 16.4336 29.0391 16.6133 29.0625 16.7852C29.0859 16.9492 29.0977 17.1055 29.0977 17.2539C29.0977 17.9102 28.8633 18.4414 28.3945 18.8477C27.7383 19.1055 26.9453 19.2344 26.0156 19.2344C25.5781 19.2344 25.1367 19.1875 24.6914 19.0938C24.2461 19 23.9453 18.8555 23.7891 18.6602L23.9297 15.6367L23.6367 14.0664C23.1289 14.0977 22.5312 14.1133 21.8438 14.1133C21.1094 14.1133 20.4219 14.0898 19.7812 14.043L19.6406 14.6758C19.3359 16.0352 19.0859 17 18.8906 17.5703C18.7031 18.1406 18.4219 18.5625 18.0469 18.8359C17.6797 19.1094 17.1289 19.2461 16.3945 19.2461C15.918 19.2461 15.4375 19.1836 14.9531 19.0586C14.4688 18.9414 14.0312 18.7812 13.6406 18.5781C13.25 18.375 12.957 18.1562 12.7617 17.9219C12.7617 17.3594 12.8477 16.8242 13.0195 16.3164C13.1914 15.8086 13.4258 15.4492 13.7227 15.2383ZM21.9375 4.92578H21.3984L20.5547 10.7031H23.1797L21.9375 4.92578ZM31.4297 9.69531C31.4297 7.89062 31.4609 6.28906 31.5234 4.89062L29.9414 4.64453C29.8398 4.35547 29.7617 4.03516 29.707 3.68359C29.6523 3.33203 29.625 2.99219 29.625 2.66406C29.625 2.41406 29.6445 2.14062 29.6836 1.84375C30.707 1.48437 32.0586 1.22656 33.7383 1.07031C35.418 0.914063 37.0586 0.835938 38.6602 0.835938C39.8555 0.835938 40.8828 0.929688 41.7422 1.11719C42.6016 1.30469 43.3203 1.73047 43.8984 2.39453C44.4844 3.05078 44.7773 4.03516 44.7773 5.34766C44.7773 5.88672 44.6914 6.48438 44.5195 7.14062C44.3477 7.78906 44.1094 8.4375 43.8047 9.08594C43.5234 9.67969 43.2031 10.2461 42.8438 10.7852C42.4922 11.3164 42.125 11.7734 41.7422 12.1562C41.9688 12.75 42.2031 13.293 42.4453 13.7852C42.6875 14.2695 43.0586 14.8594 43.5586 15.5547L45.1992 14.8633C45.8086 15.3867 46.1641 16.082 46.2656 16.9492C46.2656 16.9961 46.0781 17.2188 45.7031 17.6172C45.3359 18.0156 44.8555 18.3867 44.2617 18.7305C43.668 19.0664 43 19.2344 42.2578 19.2344C41.6797 19.2344 41.1602 19.1328 40.6992 18.9297C40.2461 18.7266 39.8711 18.3711 39.5742 17.8633C39.2852 17.3633 39.0547 16.7695 38.8828 16.082C38.7109 15.3945 38.5898 14.7148 38.5195 14.043L35.8477 13.9258C35.918 14.5352 36.0078 15.1641 36.1172 15.8125C36.2266 16.4531 36.293 16.8398 36.3164 16.9727C36.4492 17.7461 36.5352 18.2734 36.5742 18.5547C36.2148 18.7734 35.7773 18.9414 35.2617 19.0586C34.7539 19.1758 34.2344 19.2344 33.7031 19.2344C33.0938 19.2344 32.5039 19.1523 31.9336 18.9883C31.7617 18.3008 31.6328 17.0977 31.5469 15.3789C31.4688 13.6523 31.4297 11.7578 31.4297 9.69531ZM38.7188 11.1016C38.9922 10.3203 39.207 9.47266 39.3633 8.55859C39.5273 7.63672 39.6758 6.53906 39.8086 5.26562C39.582 5.17969 39.2852 5.11328 38.918 5.06641C38.5508 5.01953 38.1953 4.99609 37.8516 4.99609C37.0703 4.99609 36.4844 5.01562 36.0938 5.05469C36.0078 7.99219 35.9141 10.0742 35.8125 11.3008L38.7188 11.1016ZM50.0039 14.3008C51.0352 14.3008 51.7852 14.5273 52.2539 14.9805C52.7305 15.4258 52.9688 15.9883 52.9688 16.668C52.9688 17.1211 52.8242 17.5469 52.5352 17.9453C52.2539 18.3359 51.8828 18.6484 51.4219 18.8828C50.9688 19.1172 50.4961 19.2344 50.0039 19.2344C49.5117 19.2344 49.0352 19.1172 48.5742 18.8828C48.1211 18.6484 47.75 18.3359 47.4609 17.9453C47.1797 17.5469 47.0391 17.1211 47.0391 16.668C47.0391 15.9883 47.2734 15.4258 47.7422 14.9805C48.2188 14.5273 48.9727 14.3008 50.0039 14.3008Z" fill="#21CC51"/>
<path d="M58.3945 16.3516C58.1055 15.3906 57.6836 14.0859 57.1289 12.4375C56.5742 10.7891 56.0273 9.25781 55.4883 7.84375C54.957 6.42969 54.5664 5.55078 54.3164 5.20703L53.2969 5.125C53.0078 4.25781 52.8633 3.52734 52.8633 2.93359C53.1367 2.25391 53.5469 1.73828 54.0938 1.38672C54.6406 1.02734 55.3047 0.847656 56.0859 0.847656C57.2891 0.847656 58.1953 1.37109 58.8047 2.41797C59.1875 3.07422 59.5117 3.89844 59.7773 4.89062C60.0508 5.875 60.3164 7.0625 60.5742 8.45312C61.082 11.1016 61.3945 13.3008 61.5117 15.0508L61.7812 15.0039C61.9844 14.5586 62.2422 13.6523 62.5547 12.2852C62.8672 10.918 63.1367 9.50781 63.3633 8.05469C63.5898 6.59375 63.7031 5.49609 63.7031 4.76172L62.1562 4.53906C62.0469 4.14844 61.9688 3.80859 61.9219 3.51953C61.875 3.22266 61.8477 2.90234 61.8398 2.55859C61.8398 2.52734 61.8398 2.48438 61.8398 2.42969C61.8477 2.375 61.8477 2.30859 61.8398 2.23047C62.0117 2.02734 62.2969 1.81641 62.6953 1.59766C63.0938 1.37891 63.5547 1.19531 64.0781 1.04688C64.6094 0.898437 65.1406 0.824219 65.6719 0.824219C66.7422 0.824219 67.5273 1.08984 68.0273 1.62109C68.5273 2.14453 68.7773 2.94922 68.7773 4.03516C68.7773 4.78516 68.6758 5.67578 68.4727 6.70703C68.2695 7.73828 67.9844 8.80469 67.6172 9.90625C67.3516 10.7031 66.9531 11.6992 66.4219 12.8945C65.8906 14.082 65.3203 15.2227 64.7109 16.3164C64.1094 17.4102 63.5664 18.2344 63.082 18.7891C62.8555 18.9375 62.582 19.0469 62.2617 19.1172C61.9414 19.1953 61.6211 19.2344 61.3008 19.2344C60.8555 19.2344 60.3984 19.1719 59.9297 19.0469C59.4688 18.9297 59.0586 18.7617 58.6992 18.543C58.3477 18.3242 58.1016 18.0742 57.9609 17.793L58.3945 16.3516ZM69.6797 4.42188C69.5391 3.97656 69.4414 3.66016 69.3867 3.47266C69.3398 3.27734 69.3047 3.07031 69.2812 2.85156C69.2656 2.625 69.2578 2.29688 69.2578 1.86719C69.9141 1.5 70.5273 1.23828 71.0977 1.08203C71.6758 0.917969 72.3281 0.835938 73.0547 0.835938C75.2188 0.835938 76.3008 1.91797 76.3008 4.08203C76.3008 4.76172 76.2305 5.76953 76.0898 7.10547C75.957 8.44141 75.7812 10.0586 75.5625 11.957C75.4297 13.0586 75.332 13.9141 75.2695 14.5234C75.418 14.6875 75.5938 14.793 75.7969 14.8398C75.9062 14.8867 76.2305 14.707 76.7695 14.3008C77.3164 13.8867 77.8711 13.3945 78.4336 12.8242C79.0039 12.2461 79.4102 11.7266 79.6523 11.2656C79.4336 7.04688 79.0938 3.92969 78.6328 1.91406C78.9844 1.5625 79.4414 1.29687 80.0039 1.11719C80.5664 0.929688 81.1133 0.835938 81.6445 0.835938C82.0977 0.835938 82.5312 0.886719 82.9453 0.988281C83.3672 1.08203 83.7305 1.24219 84.0352 1.46875C84.2773 2 84.3984 2.87109 84.3984 4.08203C84.3984 4.75391 84.332 5.85547 84.1992 7.38672C84.0742 8.91016 83.9141 10.4219 83.7188 11.9219C83.5312 13.4141 83.3477 14.5 83.168 15.1797L84.6094 14.5469C84.8516 14.7969 85.0664 15.1133 85.2539 15.4961C85.4414 15.8711 85.5625 16.3008 85.6172 16.7852C85.4922 17.0352 85.2344 17.3555 84.8438 17.7461C84.4531 18.1367 83.9727 18.4844 83.4023 18.7891C82.8398 19.0859 82.2461 19.2344 81.6211 19.2344C80.9258 19.2344 80.3906 19.0273 80.0156 18.6133C79.6484 18.1992 79.4648 17.668 79.4648 17.0195C79.4648 16.8633 79.4961 16.5234 79.5586 16C79.6289 15.4766 79.6914 15.1523 79.7461 15.0273L79.3945 14.9102C78.9727 15.7461 78.5312 16.4766 78.0703 17.1016C77.6172 17.7266 77.0781 18.2383 76.4531 18.6367C75.8281 19.0352 75.1172 19.2344 74.3203 19.2344C73.0781 19.2344 72.207 18.793 71.707 17.9102C71.207 17.0195 70.957 15.9062 70.957 14.5703C70.957 12.9531 70.9766 11.1055 71.0156 9.02734C71.0547 6.94922 71.1172 5.47656 71.2031 4.60938L69.6797 4.42188Z" fill="black"/>
</svg>
